<svg width="115" height="85" viewBox="0 0 115 85" fill="none" xmlns="http://www.w3.org/2000/svg">
<path d="M102.4 80.0004H58.2C57.9 80.0004 57.7 79.9004 57.5 79.7004C57.3 79.5004 57.2 79.2004 57.2 79.0004V52.6004C57.2 52.0004 57.7 51.6004 58.2 51.6004C58.7 51.6004 59.2 52.1004 59.2 52.6004V78.0004H101.4V33.6004L80.3 13.9004L59.2 33.6004V42.2004C59.2 42.8004 58.7 43.2004 58.2 43.2004C57.7 43.2004 57.2 42.7004 57.2 42.2004V33.1004C57.2 32.8004 57.3 32.5004 57.5 32.3004L79.6 11.7004C80 11.3004 80.6 11.3004 81 11.7004L103.1 32.3004C103.3 32.5004 103.4 32.8004 103.4 33.1004V79.0004C103.4 79.3004 103.3 79.5004 103.1 79.7004C102.9 79.9004 102.7 80.0004 102.4 80.0004ZM58.2 48.4004C57.6 48.4004 57.2 47.9004 57.2 47.4004C57.2 46.8004 57.7 46.4004 58.2 46.4004C58.7 46.4004 59.2 46.9004 59.2 47.4004C59.2 48.0004 58.7 48.4004 58.2 48.4004Z" fill="#39445B"/>
<path d="M109.1 40.4004C108.8 40.4004 108.6 40.3004 108.4 40.1004L80.3 13.9004L57.4 35.3004C57.2 35.5004 57 35.6004 56.7 35.6004C56.4 35.6004 56.1 35.5004 55.9 35.3004C55.7 35.1004 55.6 34.8004 55.6 34.6004C55.6 34.3004 55.7 34.1004 55.9 33.9004L79.5 11.9004C79.9 11.5004 80.5 11.5004 80.9 11.9004L108 37.0004V34.3004L80.3 8.40039L52.5 34.3004V36.1004C52.5 36.7004 52 37.1004 51.5 37.1004C50.9 37.1004 50.5 36.6004 50.5 36.1004V33.8004C50.5 33.5004 50.6 33.2004 50.8 33.0004L79.6 6.20039C80 5.80039 80.6 5.80039 81 6.20039L109.8 33.1004C110 33.3004 110.1 33.6004 110.1 33.9004V39.4004C110.1 39.8004 109.9 40.2004 109.5 40.4004C109.4 40.4004 109.2 40.4004 109.1 40.4004Z" fill="#39445B"/>
<path d="M100.5 26.9004C100.2 26.9004 100 26.8004 99.8 26.6004L94.9 22.0004C94.7 21.8004 94.6 21.5004 94.6 21.2004V17.4004C94.6 17.1004 94.7 16.9004 94.9 16.7004C95.1 16.5004 95.4 16.4004 95.6 16.4004H100.5C100.8 16.4004 101 16.5004 101.2 16.7004C101.4 16.9004 101.5 17.2004 101.5 17.4004V25.8004C101.5 26.2004 101.3 26.6004 100.9 26.8004C100.8 26.9004 100.7 26.9004 100.5 26.9004ZM96.6 20.8004L99.5 23.5004V18.5004H96.6V20.8004Z" fill="#39445B"/>
<path d="M13.5 73.2004V77.9004H57.2V65.5004C57.2 64.9004 57.7 64.5004 58.2 64.5004C58.7 64.5004 59.2 65.0004 59.2 65.5004V79.0004C59.2 79.3004 59.1 79.5004 58.9 79.7004C58.7 79.9004 58.4 80.0004 58.2 80.0004H12.4C12.1 80.0004 11.9 79.9004 11.7 79.7004C11.5 79.5004 11.4 79.2004 11.4 79.0004V72.9004V67.2004V54.9004C11.4 54.6004 11.5 54.4004 11.7 54.2004C11.9 54.0004 12.2 53.9004 12.4 53.9004H58.1C58.4 53.9004 58.6 54.0004 58.8 54.2004C59 54.4004 59.1 54.7004 59.1 54.9004V55.2004C59.1 55.8004 58.6 56.2004 58.1 56.2004C57.8 56.2004 57.6 56.1004 57.4 55.9004H13.4V66.8004V73.2004H13.5ZM58.2 61.3004C57.6 61.3004 57.2 60.8004 57.2 60.3004C57.2 59.7004 57.7 59.3004 58.2 59.3004C58.7 59.3004 59.2 59.8004 59.2 60.3004C59.2 60.9004 58.7 61.3004 58.2 61.3004Z" fill="#39445B"/>
<path d="M58.1 55.9012H7.30001C6.90001 55.9012 6.60001 55.7012 6.40001 55.4012C6.20001 55.1012 6.20001 54.7012 6.50001 54.3012L11.6 46.7012C11.8 46.4012 12.1 46.2012 12.5 46.2012H58.2C58.5 46.2012 58.7 46.3012 58.9 46.5012C59.1 46.7012 59.2 47.0012 59.2 47.2012V54.8012C59.2 55.1012 59.1 55.3012 58.9 55.5012C58.7 55.8012 58.4 55.9012 58.1 55.9012ZM9.20001 53.8012H57.1V48.2012H13L9.20001 53.8012Z" fill="#39445B"/>
<path d="M58.2 48.2H22.4C22 48.2 21.7 48 21.5 47.7C21.3 47.4 21.3 47 21.4 46.7L24.1 41.1C24.3 40.7 24.6 40.5 25 40.5H58.1C58.4 40.5 58.6 40.6 58.8 40.8C59 41 59.1 41.3 59.1 41.5V47.1C59.1 47.4 59 47.6 58.8 47.8C58.7 48.1 58.4 48.2 58.2 48.2ZM24 46.2H57.1V42.7H25.7L24 46.2Z" fill="#39445B"/>
<path d="M28.9 80.0012H20.1C19.8 80.0012 19.6 79.9012 19.4 79.7012C19.2 79.5012 19.1 79.2012 19.1 79.0012V61.7012C19.1 61.4012 19.2 61.2012 19.4 61.0012C19.6 60.8012 19.9 60.7012 20.1 60.7012H28.9C29.2 60.7012 29.4 60.8012 29.6 61.0012C29.8 61.2012 29.9 61.5012 29.9 61.7012V79.0012C29.9 79.3012 29.8 79.5012 29.6 79.7012C29.5 79.9012 29.2 80.0012 28.9 80.0012ZM21.1 77.9012H27.8V62.8012H21.1V77.9012Z" fill="#39445B"/>
<path d="M52.7 73.4012H34.6C34.3 73.4012 34.1 73.3012 33.9 73.1012C33.7 72.9012 33.6 72.6012 33.6 72.4012V61.7012C33.6 61.4012 33.7 61.2012 33.9 61.0012C34.1 60.8012 34.4 60.7012 34.6 60.7012H52.7C53 60.7012 53.2 60.8012 53.4 61.0012C53.6 61.2012 53.7 61.5012 53.7 61.7012V72.3012C53.7 72.6012 53.6 72.8012 53.4 73.0012C53.2 73.3012 53 73.4012 52.7 73.4012ZM35.6 71.3012H51.6V62.8012H35.6V71.3012Z" fill="#39445B"/>
<path d="M52.7 66.5H37.1C36.5 66.5 36.1 66 36.1 65.5C36.1 64.9 36.6 64.5 37.1 64.5H52.6C53.2 64.5 53.6 65 53.6 65.5C53.7 66 53.2 66.5 52.7 66.5Z" fill="#39445B"/>
<path d="M52.7 69.5996H37.1C36.5 69.5996 36.1 69.0996 36.1 68.5996C36.1 67.9996 36.6 67.5996 37.1 67.5996H52.6C53.2 67.5996 53.6 68.0996 53.6 68.5996C53.7 69.0996 53.2 69.5996 52.7 69.5996Z" fill="#39445B"/>
<path d="M75.6 62.3996H66.3C66 62.3996 65.8 62.2996 65.6 62.0996C65.4 61.8996 65.3 61.5996 65.3 61.3996V52.0996C65.3 51.7996 65.4 51.5996 65.6 51.3996C65.8 51.1996 66.1 51.0996 66.3 51.0996H75.6C75.9 51.0996 76.1 51.1996 76.3 51.3996C76.5 51.5996 76.6 51.8996 76.6 52.0996V61.3996C76.6 61.6996 76.5 61.8996 76.3 62.0996C76.2 62.2996 75.9 62.3996 75.6 62.3996ZM67.4 60.2996H74.6V53.0996H67.4V60.2996Z" fill="#39445B"/>
<path d="M84.9 62.3996H75.6C75.3 62.3996 75.1 62.2996 74.9 62.0996C74.7 61.8996 74.6 61.5996 74.6 61.3996V52.0996C74.6 51.7996 74.7 51.5996 74.9 51.3996C75.1 51.1996 75.4 51.0996 75.6 51.0996H84.9C85.2 51.0996 85.4 51.1996 85.6 51.3996C85.8 51.5996 85.9 51.8996 85.9 52.0996V61.3996C85.9 61.6996 85.8 61.8996 85.6 62.0996C85.5 62.2996 85.2 62.3996 84.9 62.3996ZM76.7 60.2996H83.9V53.0996H76.7V60.2996Z" fill="#39445B"/>
<path d="M94.2 62.3996H84.9C84.6 62.3996 84.4 62.2996 84.2 62.0996C84 61.8996 83.9 61.5996 83.9 61.3996V52.0996C83.9 51.7996 84 51.5996 84.2 51.3996C84.4 51.1996 84.7 51.0996 84.9 51.0996H94.2C94.5 51.0996 94.7 51.1996 94.9 51.3996C95.1 51.5996 95.2 51.8996 95.2 52.0996V61.3996C95.2 61.6996 95.1 61.8996 94.9 62.0996C94.8 62.2996 94.5 62.3996 94.2 62.3996ZM86 60.2996H93.2V53.0996H86V60.2996Z" fill="#39445B"/>
<path d="M75.6 71.7004H66.3C66 71.7004 65.8 71.6004 65.6 71.4004C65.4 71.2004 65.3 70.9004 65.3 70.7004V61.4004C65.3 61.1004 65.4 60.9004 65.6 60.7004C65.8 60.5004 66.1 60.4004 66.3 60.4004H75.6C75.9 60.4004 76.1 60.5004 76.3 60.7004C76.5 60.9004 76.6 61.2004 76.6 61.4004V70.7004C76.6 71.0004 76.5 71.2004 76.3 71.4004C76.2 71.6004 75.9 71.7004 75.6 71.7004ZM67.4 69.6004H74.6V62.4004H67.4V69.6004Z" fill="#39445B"/>
<path d="M84.9 71.7004H75.6C75.3 71.7004 75.1 71.6004 74.9 71.4004C74.7 71.2004 74.6 70.9004 74.6 70.7004V61.4004C74.6 61.1004 74.7 60.9004 74.9 60.7004C75.1 60.5004 75.4 60.4004 75.6 60.4004H84.9C85.2 60.4004 85.4 60.5004 85.6 60.7004C85.8 60.9004 85.9 61.2004 85.9 61.4004V70.7004C85.9 71.0004 85.8 71.2004 85.6 71.4004C85.5 71.6004 85.2 71.7004 84.9 71.7004ZM76.7 69.6004H83.9V62.4004H76.7V69.6004Z" fill="#39445B"/>
<path d="M94.2 71.7004H84.9C84.6 71.7004 84.4 71.6004 84.2 71.4004C84 71.2004 83.9 70.9004 83.9 70.7004V61.4004C83.9 61.1004 84 60.9004 84.2 60.7004C84.4 60.5004 84.7 60.4004 84.9 60.4004H94.2C94.5 60.4004 94.7 60.5004 94.9 60.7004C95.1 60.9004 95.2 61.2004 95.2 61.4004V70.7004C95.2 71.0004 95.1 71.2004 94.9 71.4004C94.8 71.6004 94.5 71.7004 94.2 71.7004ZM86 69.6004H93.2V62.4004H86V69.6004Z" fill="#39445B"/>
<path d="M113.3 80H1.70001C1.10001 80 0.700012 79.5 0.700012 79C0.700012 78.4 1.20001 78 1.70001 78H113.3C113.9 78 114.3 78.5 114.3 79C114.4 79.5 113.9 80 113.3 80Z" fill="#39445B"/>
<path d="M98.9 83.7012H48.7C48.1 83.7012 47.7 83.2012 47.7 82.7012C47.7 82.1012 48.2 81.7012 48.7 81.7012H98.9C99.5 81.7012 99.9 82.2012 99.9 82.7012C99.9 83.2012 99.5 83.7012 98.9 83.7012Z" fill="#39445B"/>
<path d="M27.2 83.5996H3.40002C2.80002 83.5996 2.40002 83.0996 2.40002 82.5996C2.40002 81.9996 2.90002 81.5996 3.40002 81.5996H27.2C27.8 81.5996 28.2 82.0996 28.2 82.5996C28.2 83.0996 27.8 83.5996 27.2 83.5996Z" fill="#39445B"/>
<path d="M35.4 30.2996H23.8C23 30.2996 22.2 29.9996 21.6 29.3996C21 28.7996 20.7 27.9996 20.7 27.1996C20.7 25.8996 21.6 24.6996 22.8 24.1996C23 22.9996 23.9 21.9996 25.1 21.6996C25.6 20.5996 26.7 19.8996 27.9 19.8996C28.2 19.8996 28.4 19.8996 28.7 19.9996C29.3 19.3996 30.2 19.0996 31.1 19.0996C32.7 19.0996 34.1 20.1996 34.5 21.6996C35.4 21.6996 36.3 22.0996 36.9 22.6996C37.5 23.3996 37.9 24.1996 37.9 25.0996C37.9 25.1996 37.9 25.1996 37.9 25.2996C38.3 25.7996 38.5 26.4996 38.5 27.0996C38.5 27.8996 38.2 28.6996 37.6 29.2996C37 29.9996 36.2 30.2996 35.4 30.2996ZM23.8 26.1996C23.2 26.1996 22.8 26.6996 22.8 27.1996C22.8 27.7996 23.3 28.1996 23.8 28.1996H35.3C35.9 28.1996 36.3 27.6996 36.3 27.1996C36.3 26.8996 36.2 26.6996 36 26.4996C35.7 26.2996 35.6 25.8996 35.7 25.5996C35.7 25.4996 35.7 25.3996 35.7 25.2996C35.7 24.4996 35.1 23.8996 34.3 23.8996C34.1 23.8996 34 23.8996 33.8 23.9996C33.4 24.0996 33 24.0996 32.7 23.7996C32.4 23.5996 32.3 23.1996 32.4 22.7996C32.4 22.7996 32.4 22.6996 32.4 22.5996C32.4 21.7996 31.8 21.1996 31 21.1996C30.5 21.1996 30.1 21.3996 29.8 21.7996C29.7 21.9996 29.4 22.1996 29.1 22.2996C28.8 22.3996 28.5 22.2996 28.3 22.1996C28.2 22.0996 28 22.0996 27.8 22.0996C27.3 22.0996 26.9 22.4996 26.8 22.9996C26.7 23.4996 26.3 23.8996 25.8 23.8996C25.2 23.8996 24.8 24.3996 24.8 24.8996C24.8 24.9996 24.8 24.9996 24.8 25.0996C24.8 25.3996 24.8 25.6996 24.6 25.8996C24.4 26.0996 24.2 26.1996 23.8 26.1996Z" fill="#39445B"/>
<path d="M80.3 35.3012C78.5 35.3012 76.8 34.6012 75.5 33.3012C74.2 32.0012 73.5 30.3012 73.5 28.5012C73.5 26.7012 74.2 25.0012 75.5 23.7012C76.8 22.4012 78.5 21.7012 80.3 21.7012C82.1 21.7012 83.8 22.4012 85.1 23.7012C86.4 25.0012 87.1 26.7012 87.1 28.5012C87.1 30.3012 86.4 32.0012 85.1 33.3012C83.8 34.6012 82.1 35.3012 80.3 35.3012ZM80.3 23.9012C77.7 23.9012 75.6 26.0012 75.6 28.6012C75.6 31.2012 77.7 33.3012 80.3 33.3012C82.9 33.3012 85 31.2012 85 28.6012C85 26.0012 82.9 23.9012 80.3 23.9012Z" fill="#39445B"/>
<path d="M54.2 32.3C54.1 32.3 53.9 32.3 53.8 32.2C53.4 32 53.2 31.7 53.2 31.2V18.5C53.2 18.2 53.3 18 53.5 17.8C53.7 17.6 54 17.5 54.2 17.5H67.9C68.3 17.5 68.7 17.8 68.9 18.2C69.1 18.6 69 19 68.6 19.3L54.9 32C54.7 32.2 54.5 32.3 54.2 32.3ZM55.3 19.6V29L65.3 19.6H55.3Z" fill="#39445B"/>
<path d="M64.4 15.0004H49.7C48.7 15.0004 47.8 14.6004 47.1 13.9004C46.4 13.2004 46 12.3004 46 11.3004C46 10.5004 46.3 9.70039 46.8 9.10039C47.3 8.50039 48 8.00039 48.7 7.80039C48.8 6.30039 50 5.00039 51.5 4.70039C52.1 3.30039 53.4 2.40039 54.9 2.40039C55.3 2.40039 55.6 2.50039 56 2.60039C56.8 1.80039 57.8 1.40039 58.9 1.40039C60.9 1.40039 62.6 2.80039 63 4.80039C63.1 4.80039 63.1 4.80039 63.2 4.80039C65.5 4.80039 67.3 6.70039 67.3 8.90039C67.3 9.00039 67.3 9.10039 67.3 9.20039C67.8 9.80039 68 10.6004 68 11.4004C68 12.4004 67.6 13.3004 66.9 14.0004C66.3 14.6004 65.4 15.0004 64.4 15.0004ZM49.7 9.70039C48.8 9.70039 48.1 10.4004 48.1 11.3004C48.1 12.2004 48.8 12.9004 49.7 12.9004H64.4C65.3 12.9004 66 12.2004 66 11.3004C66 10.9004 65.8 10.4004 65.5 10.1004C65.2 9.90039 65.1 9.50039 65.2 9.10039C65.2 9.00039 65.2 8.80039 65.2 8.70039C65.2 7.60039 64.3 6.60039 63.1 6.60039C62.8 6.60039 62.6 6.70039 62.3 6.80039C62 6.90039 61.5 6.90039 61.3 6.70039C61 6.50039 60.9 6.10039 60.9 5.70039C60.9 5.60039 60.9 5.50039 60.9 5.40039C60.9 4.30039 60 3.30039 58.8 3.30039C58.1 3.30039 57.4 3.70039 57.1 4.30039C56.9 4.60039 56.6 4.80039 56.2 4.80039C56 4.80039 55.8 4.70039 55.7 4.60039C55.4 4.40039 55.2 4.40039 54.9 4.40039C54.1 4.40039 53.4 5.00039 53.3 5.80039C53.2 6.30039 52.8 6.70039 52.3 6.70039C51.4 6.70039 50.7 7.40039 50.7 8.30039C50.7 8.40039 50.7 8.50039 50.7 8.50039C50.8 8.80039 50.7 9.10039 50.5 9.30039C50.3 9.60039 50 9.70039 49.7 9.70039Z" fill="#39445B"/>
</svg>
