<svg width="72" height="85" viewBox="0 0 72 85" fill="none" xmlns="http://www.w3.org/2000/svg">
<g clip-path="url(#clip0_2125_453)">
<path d="M34.8446 75.3124C35.0336 75.6904 35.4116 75.8793 35.7895 75.8793C36.1674 75.8793 36.5454 75.6904 36.7343 75.3124L56.0092 41.9593C60.2611 34.684 60.2611 25.8969 56.0092 18.6216C51.7574 11.3463 44.1986 7 35.7895 7C27.3803 7 19.8216 11.3463 15.5698 18.6216C11.3179 25.8969 11.3179 34.684 15.5698 41.9593L34.8446 75.3124ZM17.4594 19.7554C21.2388 13.1415 28.1362 9.17315 35.7895 9.17315C43.4428 9.17315 50.2457 13.1415 54.1195 19.7554C57.8989 26.3694 57.8989 34.3061 54.1195 40.92L35.7895 72.5724L17.4594 40.8255C13.6801 34.2116 13.6801 26.3694 17.4594 19.7554Z" fill="#39445B"/>
<path d="M35.7895 46.2117C44.7656 46.2117 52.0409 38.9364 52.0409 29.9604C52.0409 20.9843 44.7656 13.709 35.7895 13.709C26.8134 13.709 19.5381 20.9843 19.5381 29.9604C19.5381 38.9364 26.8134 46.2117 35.7895 46.2117ZM35.7895 15.8821C43.5372 15.8821 49.8677 22.2126 49.8677 29.9604C49.8677 37.7081 43.5372 44.0386 35.7895 44.0386C28.0417 44.0386 21.7113 37.7081 21.7113 29.9604C21.7113 22.2126 28.0417 15.8821 35.7895 15.8821Z" fill="#39445B"/>
<path d="M48.356 64.7288C47.7891 64.6344 47.2222 65.1068 47.1277 65.7682C47.0332 66.3351 47.5056 66.902 48.167 66.9965C62.0563 68.3193 69.5206 71.6262 69.5206 74.0828C69.5206 77.0119 58.4658 81.3581 38.4351 81.7361C37.5847 81.7361 36.6399 81.7361 35.884 81.7361C35.0336 81.7361 34.1833 81.7361 33.3329 81.7361C13.3021 81.3581 2.2474 77.0119 2.2474 74.0828C2.2474 71.6262 9.7117 68.3193 23.6954 66.9965C24.2624 66.902 24.7348 66.4296 24.7348 65.7682C24.6403 65.2013 24.1679 64.7288 23.5065 64.7288C17.7429 65.2013 -0.114716 67.4689 -0.114716 74.0828C-0.114716 80.4133 17.176 83.6258 33.1439 84.0037C34.0888 84.0037 34.9391 84.0037 35.7895 84.0037C36.6399 84.0037 37.4902 84.0037 38.4351 84.0037C54.4975 83.7203 71.6937 80.5078 71.6937 74.0828C71.6937 67.4689 53.8361 65.2013 48.356 64.7288Z" fill="#39445B"/>
</g>
<defs>
<clipPath id="clip0_2125_453">
<rect width="71.579" height="85" fill="white"/>
</clipPath>
</defs>
</svg>
