<svg width="82" height="87" viewBox="0 0 82 87" fill="none" xmlns="http://www.w3.org/2000/svg">
<g clip-path="url(#clip0_2132_461)">
<path d="M39.4974 77.1799C39.7109 77.6069 40.1379 77.8204 40.5649 77.8204C40.9919 77.8204 41.4189 77.6069 41.6324 77.1799L63.4093 39.4973C68.213 31.2776 68.213 21.3499 63.4093 13.1302C58.6056 4.91048 50.0656 0 40.5649 0C31.0641 0 22.5242 4.91048 17.7204 13.1302C12.9167 21.3499 12.9167 31.2776 17.7204 39.4973L39.4974 77.1799ZM19.8554 14.4112C24.1254 6.93872 31.9181 2.45524 40.5649 2.45524C49.2116 2.45524 56.8976 6.93872 61.2743 14.4112C65.5443 21.8837 65.5443 30.8506 61.2743 38.3231L40.5649 74.0842L19.8554 38.2163C15.5854 30.7439 15.5854 21.8837 19.8554 14.4112Z" fill="#39445B"/>
<path d="M40.5649 44.3019C50.7061 44.3019 58.9258 36.0822 58.9258 25.941C58.9258 15.7998 50.7061 7.58008 40.5649 7.58008C30.4237 7.58008 22.2039 15.7998 22.2039 25.941C22.2039 36.0822 30.4237 44.3019 40.5649 44.3019ZM40.5649 10.0353C49.3183 10.0353 56.4706 17.1875 56.4706 25.941C56.4706 34.6945 49.3183 41.8467 40.5649 41.8467C31.8114 41.8467 24.6592 34.6945 24.6592 25.941C24.6592 17.1875 31.8114 10.0353 40.5649 10.0353Z" fill="#39445B"/>
<path d="M54.7626 65.2226C54.1221 65.1158 53.4816 65.6496 53.3748 66.3968C53.2681 67.0373 53.8018 67.6778 54.5491 67.7846C70.2413 69.2791 78.6745 73.0153 78.6745 75.7908C78.6745 79.1 66.1848 84.0105 43.5539 84.4375C42.5931 84.4375 41.5256 84.4375 40.6716 84.4375C39.7109 84.4375 38.7501 84.4375 37.7894 84.4375C15.1585 84.0105 2.66874 79.1 2.66874 75.7908C2.66874 73.0153 11.102 69.2791 26.9009 67.7846C27.5414 67.6778 28.0752 67.1441 28.0752 66.3968C27.9684 65.7563 27.4347 65.2226 26.6874 65.2226C20.1757 65.7563 0 68.3183 0 75.7908C0 82.943 19.5352 86.5725 37.5759 86.9995C38.6434 86.9995 39.6041 86.9995 40.5649 86.9995C41.5256 86.9995 42.4864 86.9995 43.5539 86.9995C61.7013 86.6793 81.1297 83.0498 81.1297 75.7908C81.1297 68.3183 60.9541 65.7563 54.7626 65.2226Z" fill="#39445B"/>
</g>
<defs>
<clipPath id="clip0_2132_461">
<rect width="81.13" height="87" fill="white"/>
</clipPath>
</defs>
</svg>
